<svg width="75" height="40" viewBox="0 0 75 40" fill="none" xmlns="http://www.w3.org/2000/svg">
<path d="M7.992 32.496C7.112 32.496 6.272 32.408 5.472 32.232L5.856 28.68C6.48 28.776 7.056 28.824 7.584 28.824C8.576 28.824 9.328 28.528 9.84 27.936C10.352 27.36 10.656 26.384 10.752 25.008C9.808 26.336 8.368 27 6.432 27C5.376 27 4.4 26.728 3.504 26.184C2.624 25.64 1.92 24.904 1.392 23.976C0.88 23.048 0.624 22.032 0.624 20.928C0.624 19.808 0.88 18.784 1.392 17.856C1.904 16.912 2.6 16.168 3.48 15.624C4.376 15.08 5.352 14.808 6.408 14.808C7.384 14.808 8.232 15.064 8.952 15.576C9.688 16.072 10.168 16.744 10.392 17.592V14.808H15.456V23.952C15.456 26.752 14.816 28.872 13.536 30.312C12.272 31.768 10.424 32.496 7.992 32.496ZM7.992 23.4C8.632 23.4 9.184 23.176 9.648 22.728C10.112 22.264 10.36 21.72 10.392 21.096V20.904C10.36 20.296 10.104 19.76 9.624 19.296C9.16 18.832 8.616 18.6 7.992 18.6C7.336 18.6 6.776 18.84 6.312 19.32C5.848 19.784 5.616 20.344 5.616 21C5.616 21.656 5.848 22.224 6.312 22.704C6.776 23.168 7.336 23.4 7.992 23.4Z" fill="#3040C4"/>
<path d="M22.76 32.392C22.536 32.4293 22.3307 32.448 22.144 32.448C20.1467 32.448 18.364 32.0187 16.796 31.16C15.2467 30.3013 14.0333 29.116 13.156 27.604C12.2973 26.0733 11.868 24.3373 11.868 22.396C11.868 20.436 12.2973 18.6907 13.156 17.16C14.0333 15.6293 15.2467 14.444 16.796 13.604C18.364 12.7453 20.156 12.316 22.172 12.316C24.188 12.316 25.9707 12.7453 27.52 13.604C29.088 14.444 30.3013 15.6293 31.16 17.16C32.0373 18.672 32.476 20.4173 32.476 22.396C32.476 23.9453 32.168 25.4107 31.552 26.792C30.936 28.1547 30.0493 29.3213 28.892 30.292L32.476 32.644V33.708L28.948 36.452L22.76 32.392ZM22.172 27.352C23.348 27.352 24.3093 26.8947 25.056 25.98C25.8213 25.0653 26.204 23.8613 26.204 22.368C26.204 21.3787 26.0267 20.5013 25.672 19.736C25.336 18.952 24.86 18.3453 24.244 17.916C23.628 17.468 22.928 17.244 22.144 17.244C21.3787 17.244 20.688 17.468 20.072 17.916C19.456 18.3453 18.98 18.952 18.644 19.736C18.308 20.5013 18.14 21.3787 18.14 22.368C18.14 23.8613 18.5133 25.0653 19.26 25.98C20.0067 26.8947 20.9773 27.352 22.172 27.352ZM42.1878 32.224C40.7132 32.224 39.3972 31.9627 38.2398 31.44C37.1012 30.9173 36.2145 30.18 35.5798 29.228C34.9452 28.276 34.6278 27.1933 34.6278 25.98V17.972H40.3958V25.896C40.3958 26.512 40.5638 26.9973 40.8998 27.352C41.2545 27.688 41.6932 27.856 42.2158 27.856C42.7198 27.856 43.1305 27.688 43.4478 27.352C43.7838 26.9973 43.9518 26.512 43.9518 25.896V17.972H49.6078V25.98C49.6078 27.212 49.2905 28.304 48.6558 29.256C48.0398 30.1893 47.1718 30.9173 46.0518 31.44C44.9318 31.9627 43.6438 32.224 42.1878 32.224ZM57.2499 32.224C55.6819 32.224 54.4592 31.72 53.5819 30.712C52.7045 29.704 52.2659 28.332 52.2659 26.596V17.972H58.2019V26.344C58.2019 26.7733 58.3139 27.1093 58.5379 27.352C58.7805 27.576 59.0885 27.688 59.4619 27.688C59.8352 27.688 60.2179 27.576 60.6099 27.352L60.9179 31.244C60.5072 31.5613 59.9659 31.804 59.2939 31.972C58.6405 32.14 57.9592 32.224 57.2499 32.224ZM55.2339 15.872C54.3565 15.872 53.6099 15.6013 52.9939 15.06C52.3965 14.5 52.0979 13.8187 52.0979 13.016C52.0979 12.2133 52.4152 11.5413 53.0499 11C53.6845 10.4587 54.4125 10.188 55.2339 10.188C56.0925 10.188 56.8299 10.468 57.4459 11.028C58.0805 11.588 58.3979 12.2507 58.3979 13.016C58.3979 13.8373 58.0805 14.5187 57.4459 15.06C56.8112 15.6013 56.0739 15.872 55.2339 15.872ZM62.0164 29.004L66.9444 21.556H62.2124V17.972H73.8604V20.996L69.1844 28.416H73.9724V32H62.0164V29.004Z" fill="#3040C4"/>
</svg>
